<svg width="1208" height="431" viewBox="0 0 1208 431" fill="none" xmlns="http://www.w3.org/2000/svg">
<path d="M756 102.147C780.916 120.452 797.346 141.781 809.16 170.376C809.16 172.39 809.16 174.405 809.16 176.48C799.354 178.681 791.416 179.289 781.692 176.48C775.223 168.734 770.754 160.57 765.836 151.766C754.11 132.909 735.011 119.748 713.678 113.711C686.944 109.442 653.067 107.293 629.092 121.544C604.164 140.49 587.721 157.941 580.26 188.688C576.119 222.037 577.981 252.482 598.572 280.248C617.708 302.336 638.959 314.957 668.064 318.124C701.145 319.903 728.827 312.857 755.368 292.074C769.494 277.963 769.494 277.963 784.744 246.676C750.5 246.676 716.257 246.676 680.976 246.676C680.976 238.619 680.976 230.561 680.976 222.26C725.291 222.26 769.606 222.26 815.264 222.26C810.538 264.797 797.006 292.372 764.715 320.687C732.161 345.237 696.171 351.789 656.56 347.392C624.744 340.309 594.228 321.335 574.156 295.508C551.011 258.06 545.567 226.029 549.74 182.584C560.289 139.018 589.97 112.449 626.839 89.8437C666.747 69.9941 719.896 79.1519 756 102.147Z" fill="white"/>
<path d="M790.848 84.9199C799.912 84.9199 808.977 84.9199 818.316 84.9199C831.19 109.711 842.593 134.928 853.228 160.745C857.486 171.08 861.788 181.398 866.087 191.716C866.944 193.776 867.801 195.836 868.684 197.959C881.033 227.58 893.913 256.973 906.824 286.352C912.355 278.056 916 270.601 919.871 261.464C921.236 258.253 922.602 255.043 924.009 251.736C926.207 246.528 926.207 246.528 928.45 241.216C930.731 235.846 930.731 235.846 933.058 230.367C937.104 220.837 941.142 211.304 945.176 201.77C950.83 188.41 956.498 175.056 962.166 161.702C965.179 154.6 968.189 147.497 971.195 140.393C979.065 121.819 987.077 103.325 995.332 84.9199C1004.4 84.9199 1013.46 84.9199 1022.8 84.9199C1020.92 95.8799 1017.96 105.375 1013.59 115.588C1012.31 118.594 1011.03 121.6 1009.71 124.697C1008.32 127.933 1006.93 131.169 1005.49 134.503C1003.32 139.593 1003.32 139.593 1001.1 144.787C997.198 153.921 993.283 163.049 989.361 172.175C985.33 181.562 981.316 190.956 977.299 200.349C954.992 252.487 932.571 304.577 909.876 356.548C901.774 349.406 898.036 342.588 893.866 332.677C892.588 329.67 891.311 326.664 889.994 323.567C888.632 320.299 887.269 317.032 885.865 313.665C884.425 310.263 882.986 306.861 881.502 303.356C877.624 294.183 873.764 285.002 869.914 275.817C865.949 266.374 861.961 256.941 857.973 247.507C853.229 236.284 848.486 225.06 843.75 213.833C834.961 193.009 826.1 172.221 817.064 151.504C816.108 149.312 815.153 147.121 814.168 144.863C809.927 135.154 805.668 125.453 801.394 115.758C799.964 112.49 798.533 109.222 797.059 105.855C795.844 103.1 794.628 100.345 793.376 97.5064C790.848 91.0239 790.848 91.0239 790.848 84.9199Z" fill="white"/>
<path d="M445.972 84.9199C455.036 84.9199 464.101 84.9199 473.44 84.9199C473.44 161.464 473.44 238.008 473.44 316.872C504.662 316.872 535.884 316.872 568.052 316.872C568.052 325.936 568.052 335.001 568.052 344.34C527.766 344.34 487.479 344.34 445.972 344.34C445.972 258.731 445.972 173.123 445.972 84.9199Z" fill="white"/>
<path d="M170.202 0.0697161C203.741 -0.622266 232.101 3.50984 257.815 27.307C264.93 34.837 271.332 42.6911 277.731 50.8383C280.424 54.1975 283.119 57.5558 285.814 60.9125C300.839 79.756 315.436 98.9341 330.09 118.067C340.079 131.07 350.268 143.906 360.517 156.704C362.822 159.598 362.822 159.598 365.174 162.55C372.093 171.212 379.077 179.756 386.304 188.166C388.558 190.814 390.812 193.462 393.135 196.19C395.106 198.432 397.078 200.674 399.108 202.985C402.864 209.542 402.863 209.542 403.042 216.623C398.308 228.608 390.59 237.206 382.263 246.929C378.616 251.295 374.975 255.667 371.342 260.043C369.475 262.288 367.609 264.533 365.686 266.845C356.941 277.543 348.62 288.549 340.298 299.577C325.391 319.257 310.084 338.554 294.408 357.628C285.702 368.23 277.292 378.947 269.147 389.992C252.808 411.028 233.723 423.47 207.535 429.287C191.499 430.515 175.521 430.356 159.454 430.18C154.841 430.163 150.227 430.15 145.613 430.141C133.556 430.106 121.5 430.016 109.443 429.914C97.106 429.82 84.7683 429.779 72.4307 429.733C48.2866 429.635 24.1434 429.48 0 429.287C2.86729 424.938 5.74089 420.594 8.61719 416.251C10.2166 413.832 11.816 411.413 13.4639 408.92C20.3628 398.813 27.924 389.346 35.6699 379.882C38.8905 375.902 42.1089 371.919 45.3262 367.936L50.1934 361.924C57.512 352.839 64.7181 343.668 71.9121 334.484C73.2729 332.748 74.6342 331.011 76.0361 329.222C78.7889 325.709 81.541 322.195 84.293 318.682C88.6615 313.113 93.0418 307.554 97.4248 301.996C103.161 294.723 108.885 287.44 114.593 280.144C119.051 274.45 123.527 268.77 128.04 263.12C142.094 245.176 148.831 229.849 146.495 206.491C140.194 178.187 120.635 157.692 102.544 136.081C94.8769 126.827 87.4993 117.352 80.1143 107.872C70.7107 95.8607 61.2572 83.8952 51.6924 72.0111C42.1778 60.1376 32.7808 48.1782 23.4619 36.1508C21.5348 33.6807 21.5344 33.6805 19.5684 31.1605C12.3288 21.7754 6.00908 12.2101 0 2.00624C27.222 1.5797 54.4433 1.25501 81.668 1.05702C94.3131 0.961939 106.956 0.833261 119.6 0.624404C131.829 0.423678 144.057 0.316053 156.288 0.268935C160.926 0.235411 165.565 0.169472 170.202 0.0697161ZM277.731 165.86C271.426 175.261 264.582 183.941 257.222 192.543C245.437 206.236 233.824 220.016 222.686 234.242C210.945 249.319 199.15 264.339 187.115 279.183C185.432 281.252 183.799 283.261 182.166 285.27C173.465 295.977 164.74 306.662 155.929 317.279C153.897 319.719 151.925 322.089 149.953 324.457C146.068 329.136 142.181 333.813 138.293 338.489C136.405 340.738 134.572 342.92 132.739 345.103C130.131 348.241 130.132 348.241 127.575 351.317C121.443 358.643 116.949 365.674 112.924 374.35C123.935 374.538 134.946 374.697 145.959 374.797C150.461 374.835 154.964 374.876 159.467 374.922C166.09 375.039 172.712 375.153 179.336 375.204C181.482 375.218 183.564 375.232 185.646 375.245C189.664 375.294 193.564 375.341 197.464 375.389C210.702 374.023 215.959 369.556 224.429 359.793C234.005 346.985 243.75 334.324 253.659 321.772C262.407 310.698 271.216 299.675 279.615 288.333C285.258 280.571 290.956 272.955 297.207 265.665C299.635 262.88 299.636 262.881 302.017 260.151C305.361 256.311 308.711 252.476 312.066 248.646C322.314 237.193 331.088 227.591 335.72 212.594C330.306 205.924 324.933 199.236 319.79 192.355C318.489 190.59 317.227 188.877 315.965 187.164C313.329 183.625 310.694 180.084 308.061 176.542C303.248 169.913 298.413 163.84 292.991 157.658H283.835C281.76 160.446 279.746 163.153 277.731 165.86ZM185.349 55.7494C178.884 55.8031 172.425 55.8721 165.962 56.0209C161.478 56.1268 156.993 56.2097 152.508 56.2709C139.311 56.4177 126.118 56.639 112.924 56.9418C115.976 66.0977 115.976 66.0977 119.809 71.3187C121.456 73.2686 123.055 75.1615 124.654 77.0541C126.487 79.2434 128.266 81.3686 130.045 83.4935C150.517 107.734 175.505 132.859 189.545 161.485C191.467 166.315 193.396 171.143 195.327 175.97C199.951 177.511 199.951 177.511 204.483 179.022C205.78 177.344 207.039 175.715 208.298 174.086C210.995 170.606 210.996 170.607 213.64 167.196C217.688 161.966 221.759 156.753 225.848 151.554C228.142 148.769 230.368 146.066 232.595 143.364C234.84 140.636 237.021 137.988 239.2 135.34C244.622 128.84 249.354 122.723 253.363 115.276C253.301 106.881 253.301 106.881 243.479 94.2455C242.024 92.458 240.613 90.7226 239.2 88.9877C227.541 73.9092 217.147 58.2208 197.118 55.556C193.117 55.6219 189.232 55.6855 185.349 55.7494Z" fill="white"/>
<path d="M1038.06 84.9199C1149.65 84.9199 1149.65 84.9204 1176.75 109.599C1188.74 124.323 1189.08 139.799 1188.79 158.108C1187.05 171.714 1181.92 181.921 1172.35 191.74C1165.72 195.436 1165.72 195.436 1160.14 197.844V203.948C1161.78 204.2 1163.41 204.452 1165.1 204.711C1180.42 209.549 1190.69 217.713 1199.43 231.034C1209.83 251.38 1209.66 274.956 1204 296.819C1196.99 312.969 1184.32 326.22 1169.3 335.184C1138.78 344.34 1138.78 344.34 1038.06 344.34V84.9199ZM1113.55 218.108C1107.79 218.278 1107.79 218.279 1102.15 218.445C1089.7 218.705 1077.61 218.956 1065.53 219.208V319.924C1077.66 320.054 1089.43 320.18 1101.2 320.306C1104.99 320.363 1108.68 320.418 1112.37 320.474C1116.86 320.497 1116.86 320.498 1121.26 320.521C1136.4 320.682 1146.98 317.79 1160.14 310.387C1170.91 300.293 1180.2 288.412 1182.58 273.548C1182.78 255.373 1178.67 244.474 1166.24 231.416C1148.34 219.917 1134.7 217.896 1113.55 218.108ZM1110.08 111.288C1106.48 111.403 1102.98 111.514 1099.48 111.625C1082.34 112.01 1082.33 112.01 1065.53 112.388V191.74C1076.68 191.87 1087.51 191.996 1098.34 192.122C1101.83 192.179 1105.23 192.234 1108.62 192.29C1111.4 192.306 1114.1 192.321 1116.79 192.336C1125.12 192.433 1125.12 192.433 1132.67 191.74C1145.03 186.807 1154.2 179.336 1160.14 167.324C1162.4 151.354 1163.12 138.221 1154.04 124.596C1139.99 111.793 1128.78 111.085 1110.08 111.288Z" fill="white"/>
</svg>
