<svg width="40" height="32" viewBox="0 0 40 32" fill="none" xmlns="http://www.w3.org/2000/svg">
<path d="M35.2773 0C37.5599 0 39.4275 1.86692 39.4277 4.14941V10.375H26.9766C25.8354 10.3748 24.9014 9.44103 24.9014 8.2998C24.9016 7.1588 25.8355 6.22482 26.9766 6.22461H28.0146V4.15039H26.9766C24.6942 4.15061 22.8264 6.01744 22.8262 8.2998C22.8262 10.5824 24.694 12.45 26.9766 12.4502H30.0898V18.6758H26.9766C24.0715 18.676 21.7891 20.9591 21.7891 23.8643C21.7891 26.7694 24.0715 29.0516 26.9766 29.0518H29.0518V26.9766H26.9766C25.2129 26.9764 23.8643 25.628 23.8643 23.8643C23.8643 22.1005 25.2128 20.7512 26.9766 20.751H39.4277V26.9766C39.4277 29.2593 37.5601 31.127 35.2773 31.127H4.14941C1.86692 31.1267 0 29.2591 0 26.9766V20.751H12.4502C14.2141 20.751 15.5635 22.1003 15.5635 23.8643C15.5634 25.6281 14.2141 26.9766 12.4502 26.9766H10.375V29.0518H12.4502C15.3554 29.0518 17.6386 26.7695 17.6387 23.8643C17.6387 20.959 15.3555 18.6758 12.4502 18.6758H9.33789V12.4502H12.4502C14.7329 12.4502 16.6006 10.5825 16.6006 8.2998C16.6003 6.01731 14.7327 4.15039 12.4502 4.15039H9.33789V6.22461H12.4502C13.5914 6.22461 14.5251 7.15867 14.5254 8.2998C14.5254 9.44116 13.5915 10.375 12.4502 10.375H0V4.14941C0.000258523 1.86708 1.86708 0.000258003 4.14941 0H35.2773ZM7.2627 18.6758H0V12.4502H7.2627V18.6758ZM39.4277 18.6758H32.165V12.4502H39.4277V18.6758Z" fill="#F5F7FA"/>
</svg>
