<svg width="40" height="32" viewBox="0 0 40 32" fill="none" xmlns="http://www.w3.org/2000/svg">
<path d="M0.285645 27.4135V4.58641C0.285645 2.3037 2.15331 0.436035 4.43602 0.436035H35.5638C37.8465 0.436035 39.7142 2.3037 39.7142 4.58641V27.4135C39.7142 29.6962 37.8465 31.5639 35.5638 31.5639H4.43602C2.15331 31.5639 0.285645 29.6962 0.285645 27.4135Z" fill="#F5F7FA"/>
<path d="M39.7142 12.8872V10.812H27.2631C26.1217 10.812 25.1879 9.87815 25.1879 8.7368C25.1879 7.59545 26.1217 6.66161 27.2631 6.66161H28.3007V4.58643H27.2631C24.9804 4.58643 23.1127 6.45409 23.1127 8.7368C23.1127 11.0195 24.9804 12.8872 27.2631 12.8872H30.3759V19.1127H27.2631C24.3578 19.1127 22.0751 21.3954 22.0751 24.3007C22.0751 27.206 24.3578 29.4887 27.2631 29.4887H29.3383V27.4135H27.2631C25.4992 27.4135 24.1503 26.0646 24.1503 24.3007C24.1503 22.5368 25.4992 21.1879 27.2631 21.1879H39.7142V19.1127H32.4511V12.8872H39.7142ZM12.7368 19.1127H9.62399V12.8872H12.7368C15.0195 12.8872 16.8871 11.0195 16.8871 8.7368C16.8871 6.45409 15.0195 4.58643 12.7368 4.58643H9.62399V6.66161H12.7368C13.8781 6.66161 14.812 7.59545 14.812 8.7368C14.812 9.87815 13.8781 10.812 12.7368 10.812H0.285645V12.8872H7.5488V19.1127H0.285645V21.1879H12.7368C14.5007 21.1879 15.8496 22.5368 15.8496 24.3007C15.8496 26.0646 14.5007 27.4135 12.7368 27.4135H10.6616V29.4887H12.7368C15.642 29.4887 17.9247 27.206 17.9247 24.3007C17.9247 21.3954 15.642 19.1127 12.7368 19.1127Z" fill="#111133"/>
</svg>
