<svg width="35" height="35" viewBox="0 0 35 35" fill="none" xmlns="http://www.w3.org/2000/svg">
<path d="M17.5 16.9564C18.9624 16.9564 20.365 16.3754 21.3991 15.3413C22.4332 14.3072 23.0141 12.9047 23.0141 11.4422C23.0141 9.9798 22.4332 8.57726 21.3991 7.54315C20.365 6.50905 18.9624 5.9281 17.5 5.9281C16.0376 5.9281 14.635 6.50905 13.6009 7.54315C12.5668 8.57726 11.9859 9.9798 11.9859 11.4422C11.9859 12.9047 12.5668 14.3072 13.6009 15.3413C14.635 16.3754 16.0376 16.9564 17.5 16.9564ZM17.5 19.379C10.1686 19.379 5.46875 23.4248 5.46875 25.3947V29.0729H29.5312V25.3947C29.5312 23.0125 25.0819 19.379 17.5 19.379Z" fill="#F5F7FA"/>
</svg>
