<svg width="23" height="20" viewBox="0 0 23 20" fill="none" xmlns="http://www.w3.org/2000/svg">
<path fill-rule="evenodd" clip-rule="evenodd" d="M9.30011 5.17896e-07H13.6999C15.6659 -2.23392e-05 17.223 -3.37015e-05 18.4417 0.175018C19.6959 0.355155 20.7111 0.734721 21.5117 1.58999C22.3122 2.44527 22.6675 3.52978 22.8362 4.86969C22.9329 5.63869 22.9726 6.53383 22.9888 7.57061C22.9961 7.61733 23 7.66533 23 7.71429C23 7.75463 22.9974 7.79417 22.9924 7.83303C23 8.47954 23 9.1792 23 9.93554V10.0645C23 12.1648 23 13.8283 22.8362 15.1303C22.6675 16.4702 22.3122 17.5547 21.5117 18.4101C20.7111 19.2653 19.6959 19.6448 18.4417 19.825C17.223 20 15.6659 20 13.6999 20H9.30012C7.33414 20 5.77695 20 4.55826 19.825C3.30404 19.6448 2.28889 19.2653 1.4883 18.4101C0.687733 17.5547 0.332442 16.4702 0.163825 15.1303C-3.13938e-05 13.8283 -2.06381e-05 12.1648 7.57229e-07 10.0645V9.93554C-9.94045e-06 9.1792 -9.89709e-06 8.47954 0.00763894 7.83303C0.00260034 7.79417 7.57229e-07 7.75452 7.57229e-07 7.71429C7.57229e-07 7.66533 0.00384116 7.61734 0.0112226 7.57062C0.0274295 6.53384 0.067043 5.63869 0.163825 4.86969C0.332442 3.52978 0.687733 2.44527 1.4883 1.58999C2.28889 0.734721 3.30404 0.355155 4.55826 0.175018C5.77695 -3.37015e-05 7.33413 -2.23392e-05 9.30011 5.17896e-07ZM1.60678 8.57143C1.60475 9.01532 1.60465 9.4904 1.60465 10C1.60465 12.1792 1.60635 13.7274 1.75416 14.9019C1.89886 16.0517 2.17023 16.7142 2.62296 17.1978C3.0757 17.6815 3.69579 17.9714 4.77207 18.1259C5.87143 18.2839 7.32061 18.2857 9.36047 18.2857H13.6395C15.6794 18.2857 17.1286 18.2839 18.228 18.1259C19.3042 17.9714 19.9243 17.6815 20.377 17.1978C20.8298 16.7142 21.1012 16.0517 21.2458 14.9019C21.3936 13.7274 21.3953 12.1792 21.3953 10C21.3953 9.4904 21.3952 9.01532 21.3932 8.57143H1.60678ZM21.3674 6.85714H1.63254C1.65348 6.18659 1.69009 5.60725 1.75416 5.09811C1.89886 3.9483 2.17023 3.28584 2.62296 2.80217C3.0757 2.3185 3.69579 2.02859 4.77207 1.87401C5.87143 1.7161 7.32061 1.71429 9.36047 1.71429H13.6395C15.6794 1.71429 17.1286 1.7161 18.228 1.87401C19.3042 2.02859 19.9243 2.3185 20.377 2.80217C20.8298 3.28584 21.1012 3.9483 21.2458 5.09811C21.3099 5.60725 21.3466 6.18659 21.3674 6.85714ZM4.27907 14.5714C4.27907 14.0981 4.63829 13.7143 5.0814 13.7143H9.36047C9.80356 13.7143 10.1628 14.0981 10.1628 14.5714C10.1628 15.0448 9.80356 15.4286 9.36047 15.4286H5.0814C4.63829 15.4286 4.27907 15.0448 4.27907 14.5714ZM11.2326 14.5714C11.2326 14.0981 11.5918 13.7143 12.0349 13.7143H13.6395C14.0826 13.7143 14.4419 14.0981 14.4419 14.5714C14.4419 15.0448 14.0826 15.4286 13.6395 15.4286H12.0349C11.5918 15.4286 11.2326 15.0448 11.2326 14.5714Z" fill="#F5F7FA"/>
</svg>
