<svg width="88" height="88" viewBox="0 0 88 88" fill="none" xmlns="http://www.w3.org/2000/svg">
<path d="M77 46.8967C76.4232 53.1381 74.0808 59.0862 70.2469 64.0449C66.413 69.0036 61.2461 72.7679 55.3509 74.8973C49.4557 77.0267 43.0759 77.4331 36.9582 76.069C30.8404 74.7049 25.2377 71.6267 20.8055 67.1945C16.3733 62.7624 13.2951 57.1596 11.931 51.0418C10.5669 44.9241 10.9733 38.5443 13.1027 32.6491C15.2321 26.7539 18.9964 21.587 23.9551 17.7531C28.9139 13.9192 34.8619 11.5768 41.1033 11C37.4492 15.9436 35.6908 22.0346 36.148 28.1652C36.6051 34.2957 39.2475 40.0585 43.5945 44.4055C47.9415 48.7525 53.7043 51.3949 59.8348 51.852C65.9654 52.3092 72.0564 50.5508 77 46.8967Z" stroke="#F5F7FA" stroke-width="4" stroke-linecap="round" stroke-linejoin="round"/>
</svg>
