<svg width="23" height="23" viewBox="0 0 23 23" fill="none" xmlns="http://www.w3.org/2000/svg">
<mask id="path-1-inside-1_165_131" fill="white">
<path d="M22.2812 4.61731H0.71875C0.528126 4.61731 0.345309 4.69303 0.210517 4.82783C0.0757252 4.96262 0 5.14544 0 5.33606L0 16.8361C0 17.0267 0.0757252 17.2095 0.210517 17.3443C0.345309 17.4791 0.528126 17.5548 0.71875 17.5548H22.2812C22.4719 17.5548 22.6547 17.4791 22.7895 17.3443C22.9243 17.2095 23 17.0267 23 16.8361V5.33606C23 5.14544 22.9243 4.96262 22.7895 4.82783C22.6547 4.69303 22.4719 4.61731 22.2812 4.61731ZM18.0334 16.1173H4.96656C4.81676 15.2358 4.39667 14.4227 3.76441 13.7904C3.13216 13.1581 2.31901 12.7381 1.4375 12.5883V9.58388C2.31901 9.43408 3.13216 9.01398 3.76441 8.38172C4.39667 7.74947 4.81676 6.93632 4.96656 6.05481H18.0334C18.1832 6.93632 18.6033 7.74947 19.2356 8.38172C19.8678 9.01398 20.681 9.43408 21.5625 9.58388V12.5883C20.681 12.7381 19.8678 13.1581 19.2356 13.7904C18.6033 14.4227 18.1832 15.2358 18.0334 16.1173ZM21.5625 8.11044C21.0681 7.98138 20.617 7.72289 20.2557 7.36159C19.8944 7.00028 19.6359 6.54921 19.5069 6.05481H21.5625V8.11044ZM3.49313 6.05481C3.36407 6.54921 3.10558 7.00028 2.74427 7.36159C2.38297 7.72289 1.9319 7.98138 1.4375 8.11044V6.05481H3.49313ZM1.4375 14.0617C1.9319 14.1907 2.38297 14.4492 2.74427 14.8105C3.10558 15.1719 3.36407 15.6229 3.49313 16.1173H1.4375V14.0617ZM19.5069 16.1173C19.6359 15.6229 19.8944 15.1719 20.2557 14.8105C20.617 14.4492 21.0681 14.1907 21.5625 14.0617V16.1173H19.5069Z"/>
</mask>
<path d="M0 5.33606H-1.5H0ZM0 16.8361H-1.5H0ZM18.0334 16.1173V17.6173H19.3L19.5122 16.3686L18.0334 16.1173ZM4.96656 16.1173L3.48776 16.3686L3.69996 17.6173H4.96656V16.1173ZM1.4375 12.5883H-0.0625V13.8549L1.1862 14.0671L1.4375 12.5883ZM1.4375 9.58388L1.1862 8.10508L-0.0625 8.31727V9.58388H1.4375ZM4.96656 6.05481V4.55481H3.69996L3.48776 5.80351L4.96656 6.05481ZM18.0334 6.05481L19.5122 5.80351L19.3 4.55481H18.0334V6.05481ZM21.5625 9.58388H23.0625V8.31727L21.8138 8.10508L21.5625 9.58388ZM21.5625 12.5883L21.8138 14.0671L23.0625 13.8549V12.5883H21.5625ZM21.5625 8.11044L21.1836 9.5618L23.0625 10.0523V8.11044H21.5625ZM19.5069 6.05481V4.55481H17.5651L18.0555 6.43368L19.5069 6.05481ZM21.5625 6.05481H23.0625V4.55481H21.5625V6.05481ZM3.49313 6.05481L4.94449 6.43368L5.43495 4.55481H3.49313V6.05481ZM1.4375 8.11044H-0.0625V10.0523L1.81637 9.5618L1.4375 8.11044ZM1.4375 6.05481V4.55481H-0.0625V6.05481H1.4375ZM1.4375 14.0617L1.81637 12.6103L-0.0625 12.1199V14.0617H1.4375ZM3.49313 16.1173V17.6173H5.43495L4.94449 15.7385L3.49313 16.1173ZM1.4375 16.1173H-0.0625V17.6173H1.4375V16.1173ZM19.5069 16.1173L18.0555 15.7385L17.5651 17.6173H19.5069V16.1173ZM21.5625 14.0617H23.0625V12.1199L21.1836 12.6103L21.5625 14.0617ZM21.5625 16.1173V17.6173H23.0625V16.1173H21.5625ZM22.2812 4.61731V3.11731H0.71875V4.61731V6.11731H22.2812V4.61731ZM0.71875 4.61731V3.11731C0.1303 3.11731 -0.434048 3.35107 -0.850143 3.76717L0.210517 4.82783L1.27118 5.88849C1.12467 6.035 0.925951 6.11731 0.71875 6.11731V4.61731ZM0.210517 4.82783L-0.850143 3.76717C-1.26624 4.18326 -1.5 4.74761 -1.5 5.33606H0H1.5C1.5 5.54326 1.41769 5.74197 1.27118 5.88849L0.210517 4.82783ZM0 5.33606H-1.5V16.8361H0H1.5V5.33606H0ZM0 16.8361H-1.5C-1.5 17.4245 -1.26624 17.9889 -0.850143 18.405L0.210517 17.3443L1.27118 16.2836C1.41769 16.4302 1.5 16.6289 1.5 16.8361H0ZM0.210517 17.3443L-0.850143 18.405C-0.434045 18.8211 0.130303 19.0548 0.71875 19.0548V17.5548V16.0548C0.925948 16.0548 1.12466 16.1371 1.27118 16.2836L0.210517 17.3443ZM0.71875 17.5548V19.0548H22.2812V17.5548V16.0548H0.71875V17.5548ZM22.2812 17.5548V19.0548C22.8697 19.0548 23.434 18.8211 23.8501 18.405L22.7895 17.3443L21.7288 16.2836C21.8753 16.1371 22.0741 16.0548 22.2812 16.0548V17.5548ZM22.7895 17.3443L23.8501 18.405C24.2662 17.9889 24.5 17.4245 24.5 16.8361H23H21.5C21.5 16.6289 21.5823 16.4302 21.7288 16.2836L22.7895 17.3443ZM23 16.8361H24.5V5.33606H23H21.5V16.8361H23ZM23 5.33606H24.5C24.5 4.74761 24.2662 4.18327 23.8501 3.76717L22.7895 4.82783L21.7288 5.88849C21.5823 5.74197 21.5 5.54326 21.5 5.33606H23ZM22.7895 4.82783L23.8501 3.76717C23.434 3.35107 22.8697 3.11731 22.2812 3.11731V4.61731V6.11731C22.074 6.11731 21.8753 6.035 21.7288 5.88849L22.7895 4.82783ZM18.0334 16.1173V14.6173H4.96656V16.1173V17.6173H18.0334V16.1173ZM4.96656 16.1173L6.44536 15.866C6.24346 14.6779 5.67724 13.5819 4.82507 12.7297L3.76441 13.7904L2.70375 14.8511C3.11609 15.2634 3.39007 15.7937 3.48776 16.3686L4.96656 16.1173ZM3.76441 13.7904L4.82507 12.7297C3.9729 11.8776 2.87692 11.3114 1.6888 11.1095L1.4375 12.5883L1.1862 14.0671C1.7611 14.1647 2.29141 14.4387 2.70375 14.8511L3.76441 13.7904ZM1.4375 12.5883H2.9375V9.58388H1.4375H-0.0625V12.5883H1.4375ZM1.4375 9.58388L1.6888 11.0627C2.87692 10.8608 3.9729 10.2946 4.82507 9.44238L3.76441 8.38172L2.70375 7.32106C2.29141 7.7334 1.7611 8.00738 1.1862 8.10508L1.4375 9.58388ZM3.76441 8.38172L4.82507 9.44238C5.67724 8.59021 6.24346 7.49423 6.44536 6.30611L4.96656 6.05481L3.48776 5.80351C3.39007 6.37841 3.11609 6.90872 2.70375 7.32106L3.76441 8.38172ZM4.96656 6.05481V7.55481H18.0334V6.05481V4.55481H4.96656V6.05481ZM18.0334 6.05481L16.5546 6.30611C16.7565 7.49423 17.3228 8.59021 18.1749 9.44238L19.2356 8.38172L20.2962 7.32106C19.8839 6.90872 19.6099 6.37841 19.5122 5.80351L18.0334 6.05481ZM19.2356 8.38172L18.1749 9.44238C19.0271 10.2946 20.1231 10.8608 21.3112 11.0627L21.5625 9.58388L21.8138 8.10508C21.2389 8.00738 20.7086 7.7334 20.2962 7.32106L19.2356 8.38172ZM21.5625 9.58388H20.0625V12.5883H21.5625H23.0625V9.58388H21.5625ZM21.5625 12.5883L21.3112 11.1095C20.1231 11.3114 19.0271 11.8776 18.1749 12.7297L19.2356 13.7904L20.2962 14.8511C20.7086 14.4387 21.2389 14.1647 21.8138 14.0671L21.5625 12.5883ZM19.2356 13.7904L18.1749 12.7297C17.3228 13.5819 16.7565 14.6779 16.5546 15.866L18.0334 16.1173L19.5122 16.3686C19.6099 15.7937 19.8839 15.2634 20.2962 14.8511L19.2356 13.7904ZM21.5625 8.11044L21.9414 6.65907C21.7049 6.59735 21.4892 6.47372 21.3164 6.30093L20.2557 7.36159L19.1951 8.42225C19.7449 8.97206 20.4313 9.36541 21.1836 9.5618L21.5625 8.11044ZM20.2557 7.36159L21.3164 6.30093C21.1436 6.12813 21.02 5.9124 20.9582 5.67595L19.5069 6.05481L18.0555 6.43368C18.2519 7.18602 18.6453 7.87243 19.1951 8.42225L20.2557 7.36159ZM19.5069 6.05481V7.55481H21.5625V6.05481V4.55481H19.5069V6.05481ZM21.5625 6.05481H20.0625V8.11044H21.5625H23.0625V6.05481H21.5625ZM3.49313 6.05481L2.04176 5.67595C1.98004 5.9124 1.85641 6.12813 1.68361 6.30093L2.74427 7.36159L3.80493 8.42225C4.35475 7.87243 4.7481 7.18602 4.94449 6.43368L3.49313 6.05481ZM2.74427 7.36159L1.68361 6.30093C1.51081 6.47372 1.29509 6.59735 1.05863 6.65907L1.4375 8.11044L1.81637 9.5618C2.56871 9.36541 3.25512 8.97206 3.80493 8.42225L2.74427 7.36159ZM1.4375 8.11044H2.9375V6.05481H1.4375H-0.0625V8.11044H1.4375ZM1.4375 6.05481V7.55481H3.49313V6.05481V4.55481H1.4375V6.05481ZM1.4375 14.0617L1.05863 15.5131C1.29508 15.5748 1.51081 15.6984 1.68361 15.8712L2.74427 14.8105L3.80493 13.7499C3.25512 13.2001 2.56871 12.8067 1.81637 12.6103L1.4375 14.0617ZM2.74427 14.8105L1.68361 15.8712C1.85641 16.044 1.98004 16.2597 2.04176 16.4962L3.49313 16.1173L4.94449 15.7385C4.7481 14.9861 4.35475 14.2997 3.80493 13.7499L2.74427 14.8105ZM3.49313 16.1173V14.6173H1.4375V16.1173V17.6173H3.49313V16.1173ZM1.4375 16.1173H2.9375V14.0617H1.4375H-0.0625V16.1173H1.4375ZM19.5069 16.1173L20.9582 16.4962C21.02 16.2597 21.1436 16.044 21.3164 15.8712L20.2557 14.8105L19.1951 13.7499C18.6453 14.2997 18.2519 14.9861 18.0555 15.7385L19.5069 16.1173ZM20.2557 14.8105L21.3164 15.8712C21.4892 15.6984 21.7049 15.5748 21.9414 15.5131L21.5625 14.0617L21.1836 12.6103C20.4313 12.8067 19.7449 13.2001 19.1951 13.7499L20.2557 14.8105ZM21.5625 14.0617H20.0625V16.1173H21.5625H23.0625V14.0617H21.5625ZM21.5625 16.1173V14.6173H19.5069V16.1173V17.6173H21.5625V16.1173Z" fill="#F5F7FA" mask="url(#path-1-inside-1_165_131)"/>
<mask id="path-3-inside-2_165_131" fill="white">
<path d="M5.39774 0.0964987C5.31589 0.0491808 5.22551 0.0184758 5.13178 0.00614226C5.03804 -0.00619126 4.94279 8.91224e-05 4.85149 0.0246237C4.66735 0.07246 4.50968 0.191356 4.41305 0.355249L2.97555 2.82056C2.88024 2.98641 2.85471 3.18332 2.90459 3.36798C2.95446 3.55265 3.07565 3.70994 3.24149 3.80525C3.40733 3.90056 3.60425 3.92609 3.78891 3.87622C3.97358 3.82634 4.13087 3.70516 4.22618 3.53931L5.3043 1.69931L8.94837 3.80525C9.11421 3.90056 9.31112 3.92609 9.49579 3.87622C9.68045 3.82634 9.83774 3.70516 9.93305 3.53931C10.0284 3.37347 10.0539 3.17656 10.004 2.99189C9.95415 2.80723 9.83296 2.64994 9.66712 2.55463L5.39774 0.0964987Z"/>
</mask>
<path d="M5.39774 0.0964987L4.647 1.39511L4.64929 1.39643L5.39774 0.0964987ZM4.85149 0.0246237L5.22865 1.47649L5.24075 1.47324L4.85149 0.0246237ZM4.41305 0.355249L3.12089 -0.406573L3.11725 -0.400322L4.41305 0.355249ZM2.97555 2.82056L1.67972 2.06498L1.67503 2.07314L2.97555 2.82056ZM4.22618 3.53931L2.93193 2.78097L2.92566 2.79189L4.22618 3.53931ZM5.3043 1.69931L6.05485 0.400589L4.76389 -0.345469L4.0101 0.940993L5.3043 1.69931ZM8.94837 3.80525L8.19782 5.10398L8.20094 5.10577L8.94837 3.80525ZM9.66712 2.55463L8.91867 3.85456L8.91969 3.85515L9.66712 2.55463ZM5.39774 0.0964987L6.14848 -1.20211C5.89581 -1.34818 5.61681 -1.44297 5.32746 -1.48104L5.13178 0.00614226L4.93609 1.49332C4.83421 1.47992 4.73597 1.44654 4.647 1.39511L5.39774 0.0964987ZM5.13178 0.00614226L5.32746 -1.48104C5.0381 -1.51911 4.74408 -1.49972 4.46223 -1.42399L4.85149 0.0246237L5.24075 1.47324C5.14151 1.4999 5.03798 1.50673 4.93609 1.49332L5.13178 0.00614226ZM4.85149 0.0246237L4.47434 -1.42719C3.9059 -1.27952 3.41919 -0.912494 3.12091 -0.406564L4.41305 0.355249L5.7052 1.11706C5.60017 1.29521 5.42879 1.42444 5.22864 1.47644L4.85149 0.0246237ZM4.41305 0.355249L3.11725 -0.400322L1.67975 2.06499L2.97555 2.82056L4.27136 3.57613L5.70886 1.11082L4.41305 0.355249ZM2.97555 2.82056L1.67503 2.07314C1.38149 2.5839 1.30287 3.19035 1.45647 3.75908L2.90459 3.36798L4.3527 2.97689C4.40656 3.17629 4.37899 3.38891 4.27607 3.56799L2.97555 2.82056ZM2.90459 3.36798L1.45647 3.75908C1.61007 4.32781 1.9833 4.81223 2.49406 5.10577L3.24149 3.80525L3.98892 2.50473C4.16799 2.60765 4.29885 2.77749 4.3527 2.97689L2.90459 3.36798ZM3.24149 3.80525L2.49406 5.10577C3.00483 5.39931 3.61128 5.47793 4.18001 5.32433L3.78891 3.87622L3.39781 2.4281C3.59721 2.37425 3.80984 2.40181 3.98892 2.50473L3.24149 3.80525ZM3.78891 3.87622L4.18001 5.32433C4.74874 5.17074 5.23316 4.7975 5.5267 4.28674L4.22618 3.53931L2.92566 2.79189C3.02858 2.61281 3.19842 2.48195 3.39781 2.4281L3.78891 3.87622ZM4.22618 3.53931L5.52038 4.29763L6.5985 2.45763L5.3043 1.69931L4.0101 0.940993L2.93198 2.78099L4.22618 3.53931ZM5.3043 1.69931L4.55376 2.99804L8.19782 5.10397L8.94837 3.80525L9.69891 2.50653L6.05485 0.400589L5.3043 1.69931ZM8.94837 3.80525L8.20094 5.10577C8.7117 5.39931 9.31815 5.47793 9.88688 5.32433L9.49579 3.87622L9.10469 2.4281C9.30409 2.37425 9.51671 2.40181 9.69579 2.50473L8.94837 3.80525ZM9.49579 3.87622L9.88688 5.32433C10.4556 5.17074 10.94 4.7975 11.2336 4.28674L9.93305 3.53931L8.63253 2.79189C8.73545 2.61281 8.90529 2.48195 9.10469 2.4281L9.49579 3.87622ZM9.93305 3.53931L11.2336 4.28674C11.5271 3.77598 11.6057 3.16953 11.4521 2.60079L10.004 2.99189L8.5559 3.38299C8.50205 3.18359 8.52961 2.97096 8.63253 2.79189L9.93305 3.53931ZM10.004 2.99189L11.4521 2.60079C11.2985 2.03206 10.9253 1.54765 10.4145 1.2541L9.66712 2.55463L8.91969 3.85515C8.74061 3.75223 8.60976 3.58239 8.5559 3.38299L10.004 2.99189ZM9.66712 2.55463L10.4156 1.25469L6.14619 -1.20343L5.39774 0.0964987L4.64929 1.39643L8.91867 3.85456L9.66712 2.55463Z" fill="#F5F7FA" mask="url(#path-3-inside-2_165_131)"/>
<mask id="path-5-inside-3_165_131" fill="white">
<path d="M17.6022 22.0758C17.711 22.1404 17.835 22.1752 17.9616 22.1765C18.0234 22.1869 18.0866 22.1869 18.1485 22.1765C18.3326 22.1286 18.4903 22.0097 18.5869 21.8458L20.0244 19.3805C20.1197 19.2147 20.1452 19.0178 20.0954 18.8331C20.0455 18.6484 19.9243 18.4912 19.7585 18.3958C19.5926 18.3005 19.3957 18.275 19.211 18.3249C19.0264 18.3747 18.8691 18.4959 18.7738 18.6618L17.71 20.5018L14.066 18.3958C13.9001 18.3005 13.7032 18.275 13.5185 18.3249C13.3339 18.3747 13.1766 18.4959 13.0813 18.6618C12.986 18.8276 12.9604 19.0245 13.0103 19.2092C13.0602 19.3939 13.1814 19.5512 13.3472 19.6465L17.6022 22.0758Z"/>
</mask>
<path d="M17.6022 22.0758L18.3678 20.7859L18.3569 20.7795L18.3459 20.7732L17.6022 22.0758ZM17.9616 22.1765L18.2116 20.6974L18.0952 20.6778L17.9772 20.6765L17.9616 22.1765ZM18.1485 22.1765L18.3985 23.6555L18.4626 23.6446L18.5256 23.6283L18.1485 22.1765ZM18.5869 21.8458L19.8791 22.6077L19.8827 22.6014L18.5869 21.8458ZM20.0244 19.3805L21.3202 20.1361L21.3249 20.128L20.0244 19.3805ZM18.7738 18.6618L20.0724 19.4125L20.0743 19.4092L18.7738 18.6618ZM17.71 20.5018L16.9595 21.8005L18.258 22.5509L19.0086 21.2525L17.71 20.5018ZM14.066 18.3958L14.8165 17.0971L14.8134 17.0953L14.066 18.3958ZM13.3472 19.6465L12.5998 20.947L12.6035 20.9491L13.3472 19.6465ZM17.6022 22.0758L16.8366 23.3658C17.1726 23.5652 17.5553 23.6723 17.946 23.6764L17.9616 22.1765L17.9772 20.6765C18.1147 20.678 18.2495 20.7157 18.3678 20.7859L17.6022 22.0758ZM17.9616 22.1765L17.7116 23.6555C17.9389 23.6939 18.1711 23.6939 18.3985 23.6555L18.1485 22.1765L17.8985 20.6974C18.0021 20.6799 18.1079 20.6799 18.2116 20.6974L17.9616 22.1765ZM18.1485 22.1765L18.5256 23.6283C19.094 23.4806 19.5808 23.1136 19.879 22.6077L18.5869 21.8458L17.2947 21.084C17.3998 20.9059 17.5711 20.7767 17.7713 20.7247L18.1485 22.1765ZM18.5869 21.8458L19.8827 22.6014L21.3202 20.1361L20.0244 19.3805L18.7286 18.625L17.2911 21.0903L18.5869 21.8458ZM20.0244 19.3805L21.3249 20.128C21.6185 19.6172 21.6971 19.0107 21.5435 18.442L20.0954 18.8331L18.6472 19.2242C18.5934 19.0248 18.621 18.8122 18.7239 18.6331L20.0244 19.3805ZM20.0954 18.8331L21.5435 18.442C21.3899 17.8733 21.0166 17.3889 20.5059 17.0953L19.7585 18.3958L19.011 19.6964C18.832 19.5934 18.7011 19.4236 18.6472 19.2242L20.0954 18.8331ZM19.7585 18.3958L20.5059 17.0953C19.9951 16.8018 19.3887 16.7232 18.8199 16.8768L19.211 18.3249L19.6021 19.773C19.4027 19.8268 19.1901 19.7993 19.011 19.6964L19.7585 18.3958ZM19.211 18.3249L18.8199 16.8768C18.2512 17.0304 17.7668 17.4036 17.4732 17.9144L18.7738 18.6618L20.0743 19.4092C19.9714 19.5883 19.8015 19.7191 19.6021 19.773L19.211 18.3249ZM18.7738 18.6618L17.4752 17.911L16.4114 19.751L17.71 20.5018L19.0086 21.2525L20.0724 19.4125L18.7738 18.6618ZM17.71 20.5018L18.4606 19.2031L14.8165 17.0971L14.066 18.3958L13.3154 19.6946L16.9595 21.8005L17.71 20.5018ZM14.066 18.3958L14.8134 17.0953C14.3026 16.8018 13.6962 16.7232 13.1274 16.8768L13.5185 18.3249L13.9096 19.773C13.7102 19.8268 13.4976 19.7993 13.3185 19.6964L14.066 18.3958ZM13.5185 18.3249L13.1274 16.8768C12.5587 17.0304 12.0743 17.4036 11.7807 17.9144L13.0813 18.6618L14.3818 19.4092C14.2789 19.5883 14.109 19.7191 13.9096 19.773L13.5185 18.3249ZM13.0813 18.6618L11.7807 17.9144C11.4872 18.4251 11.4086 19.0316 11.5622 19.6003L13.0103 19.2092L14.4584 18.8181C14.5123 19.0175 14.4847 19.2301 14.3818 19.4092L13.0813 18.6618ZM13.0103 19.2092L11.5622 19.6003C11.7158 20.169 12.089 20.6534 12.5998 20.947L13.3472 19.6465L14.0946 18.3459C14.2737 18.4489 14.4046 18.6187 14.4584 18.8181L13.0103 19.2092ZM13.3472 19.6465L12.6035 20.9491L16.8585 23.3785L17.6022 22.0758L18.3459 20.7732L14.0909 18.3438L13.3472 19.6465Z" fill="#F5F7FA" mask="url(#path-5-inside-3_165_131)"/>
<mask id="path-7-inside-4_165_131" fill="white">
<path d="M11.5 6.77368C10.6471 6.77368 9.81329 7.02661 9.1041 7.50047C8.39492 7.97433 7.84217 8.64785 7.51577 9.43586C7.18937 10.2239 7.10397 11.091 7.27037 11.9275C7.43676 12.7641 7.84749 13.5325 8.4506 14.1356C9.05372 14.7387 9.82213 15.1494 10.6587 15.3158C11.4952 15.4822 12.3623 15.3968 13.1503 15.0704C13.9383 14.744 14.6119 14.1913 15.0857 13.4821C15.5596 12.7729 15.8125 11.9391 15.8125 11.0862C15.8125 9.94244 15.3582 8.84554 14.5494 8.03678C13.7406 7.22803 12.6437 6.77368 11.5 6.77368ZM11.5 13.9612C10.9314 13.9612 10.3755 13.7926 9.90274 13.4767C9.42995 13.1608 9.06145 12.7117 8.84385 12.1864C8.62625 11.6611 8.56931 11.083 8.68024 10.5253C8.79118 9.9676 9.06499 9.45533 9.46707 9.05325C9.86915 8.65117 10.3814 8.37736 10.9391 8.26642C11.4968 8.15549 12.0749 8.21243 12.6002 8.43003C13.1256 8.64763 13.5746 9.01613 13.8905 9.48892C14.2064 9.96171 14.375 10.5176 14.375 11.0862C14.375 11.8487 14.0721 12.5799 13.5329 13.1191C12.9938 13.6583 12.2625 13.9612 11.5 13.9612Z"/>
</mask>
<path d="M15.8125 11.0862H17.3125H15.8125ZM11.5 6.77368V5.27368C10.3504 5.27368 9.22661 5.61458 8.27075 6.25327L9.1041 7.50047L9.93746 8.74767C10.4 8.43863 10.9437 8.27368 11.5 8.27368V6.77368ZM9.1041 7.50047L8.27075 6.25327C7.31489 6.89195 6.56989 7.79974 6.12995 8.86184L7.51577 9.43586L8.90159 10.0099C9.11446 9.49597 9.47495 9.05672 9.93746 8.74767L9.1041 7.50047ZM7.51577 9.43586L6.12995 8.86184C5.69002 9.92393 5.57491 11.0926 5.79919 12.2201L7.27037 11.9275L8.74154 11.6349C8.63302 11.0893 8.68872 10.5238 8.90159 10.0099L7.51577 9.43586ZM7.27037 11.9275L5.79919 12.2201C6.02346 13.3477 6.57705 14.3834 7.38994 15.1962L8.4506 14.1356L9.51126 13.0749C9.11793 12.6816 8.85006 12.1804 8.74154 11.6349L7.27037 11.9275ZM8.4506 14.1356L7.38994 15.1962C8.20284 16.0091 9.23852 16.5627 10.366 16.787L10.6587 15.3158L10.9513 13.8446C10.4057 13.7361 9.9046 13.4683 9.51126 13.0749L8.4506 14.1356ZM10.6587 15.3158L10.366 16.787C11.4936 17.0113 12.6623 16.8962 13.7243 16.4562L13.1503 15.0704L12.5763 13.6846C12.0624 13.8975 11.4969 13.9532 10.9513 13.8446L10.6587 15.3158ZM13.1503 15.0704L13.7243 16.4562C14.7864 16.0163 15.6942 15.2713 16.3329 14.3154L15.0857 13.4821L13.8385 12.6487C13.5295 13.1112 13.0902 13.4717 12.5763 13.6846L13.1503 15.0704ZM15.0857 13.4821L16.3329 14.3154C16.9716 13.3596 17.3125 12.2358 17.3125 11.0862H15.8125H14.3125C14.3125 11.6424 14.1476 12.1862 13.8385 12.6487L15.0857 13.4821ZM15.8125 11.0862H17.3125C17.3125 9.54461 16.7001 8.06618 15.6101 6.97612L14.5494 8.03678L13.4887 9.09744C14.0162 9.62489 14.3125 10.3403 14.3125 11.0862H15.8125ZM14.5494 8.03678L15.6101 6.97612C14.52 5.88607 13.0416 5.27368 11.5 5.27368V6.77368V8.27368C12.2459 8.27368 12.9613 8.57 13.4887 9.09744L14.5494 8.03678ZM11.5 13.9612V12.4612C11.2281 12.4612 10.9622 12.3805 10.7361 12.2295L9.90274 13.4767L9.06938 14.7239C9.78885 15.2046 10.6347 15.4612 11.5 15.4612V13.9612ZM9.90274 13.4767L10.7361 12.2295C10.51 12.0784 10.3337 11.8636 10.2297 11.6124L8.84385 12.1864L7.45803 12.7604C7.78916 13.5599 8.34992 14.2431 9.06938 14.7239L9.90274 13.4767ZM8.84385 12.1864L10.2297 11.6124C10.1256 11.3611 10.0984 11.0847 10.1514 10.8179L8.68024 10.5253L7.20907 10.2327C7.04026 11.0813 7.1269 11.961 7.45803 12.7604L8.84385 12.1864ZM8.68024 10.5253L10.1514 10.8179C10.2045 10.5512 10.3354 10.3062 10.5277 10.1139L9.46707 9.05325L8.40641 7.99259C7.79455 8.60445 7.37788 9.384 7.20907 10.2327L8.68024 10.5253ZM9.46707 9.05325L10.5277 10.1139C10.72 9.92161 10.965 9.79066 11.2318 9.7376L10.9391 8.26642L10.6465 6.79525C9.79781 6.96406 9.01826 7.38074 8.40641 7.99259L9.46707 9.05325ZM10.9391 8.26642L11.2318 9.7376C11.4985 9.68455 11.7749 9.71178 12.0262 9.81585L12.6002 8.43003L13.1742 7.04421C12.3748 6.71308 11.4951 6.62644 10.6465 6.79525L10.9391 8.26642ZM12.6002 8.43003L12.0262 9.81585C12.2774 9.91992 12.4922 10.0962 12.6433 10.3223L13.8905 9.48892L15.1377 8.65556C14.657 7.9361 13.9737 7.37534 13.1742 7.04421L12.6002 8.43003ZM13.8905 9.48892L12.6433 10.3223C12.7944 10.5484 12.875 10.8142 12.875 11.0862H14.375H15.875C15.875 10.2209 15.6184 9.37503 15.1377 8.65556L13.8905 9.48892ZM14.375 11.0862H12.875C12.875 11.4509 12.7301 11.8006 12.4723 12.0585L13.5329 13.1191L14.5936 14.1798C15.4141 13.3593 15.875 12.2465 15.875 11.0862H14.375ZM13.5329 13.1191L12.4723 12.0585C12.2144 12.3163 11.8647 12.4612 11.5 12.4612V13.9612V15.4612C12.6603 15.4612 13.7731 15.0002 14.5936 14.1798L13.5329 13.1191Z" fill="#F5F7FA" mask="url(#path-7-inside-4_165_131)"/>
</svg>
