<svg width="29" height="29" viewBox="0 0 29 29" fill="none" xmlns="http://www.w3.org/2000/svg">
<path fill-rule="evenodd" clip-rule="evenodd" d="M14.5 9.96875C11.9975 9.96875 9.96875 11.9975 9.96875 14.5C9.96875 17.0026 11.9975 19.0312 14.5 19.0312C17.0026 19.0312 19.0312 17.0026 19.0312 14.5C19.0312 11.9975 17.0026 9.96875 14.5 9.96875ZM11.7812 14.5C11.7812 12.9985 12.9985 11.7812 14.5 11.7812C16.0015 11.7812 17.2187 12.9985 17.2187 14.5C17.2187 16.0015 16.0015 17.2187 14.5 17.2187C12.9985 17.2187 11.7812 16.0015 11.7812 14.5Z" fill="#F5F7FA"/>
<path fill-rule="evenodd" clip-rule="evenodd" d="M14.4695 1.51038C13.9325 1.51036 13.4841 1.51036 13.1161 1.53547C12.7329 1.56162 12.371 1.61798 12.0201 1.76332C11.2059 2.10057 10.559 2.74746 10.2218 3.56167C10.0462 3.98555 9.99866 4.43227 9.9805 4.91783C9.9659 5.30816 9.76892 5.63383 9.47821 5.80166C9.18751 5.9695 8.80698 5.97726 8.46165 5.79474C8.03206 5.56768 7.62141 5.38549 7.16652 5.3256C6.29278 5.21057 5.40911 5.44736 4.70993 5.98386C4.40862 6.21506 4.17885 6.50031 3.96463 6.81907C3.75884 7.12527 3.53468 7.51356 3.26616 7.97867L3.23565 8.03152C2.96711 8.49662 2.74294 8.88488 2.58064 9.2162C2.41171 9.5611 2.27955 9.90272 2.22997 10.2793C2.11494 11.153 2.35173 12.0367 2.88821 12.7359C3.16748 13.0997 3.53053 13.3644 3.94189 13.6228C4.27271 13.8307 4.45629 14.1642 4.45627 14.5C4.45626 14.8356 4.27267 15.1691 3.94189 15.377C3.53048 15.6354 3.1674 15.9001 2.8881 16.264C2.3516 16.9631 2.11483 17.8468 2.22985 18.7205C2.27943 19.0971 2.41159 19.4388 2.58052 19.7836C2.74281 20.115 2.96698 20.5032 3.23551 20.9683L3.26604 21.0212C3.53456 21.4863 3.75872 21.8745 3.96451 22.1807C4.17873 22.4995 4.4085 22.7848 4.70981 23.0159C5.40899 23.5524 6.29266 23.7893 7.1664 23.6742C7.62127 23.6143 8.03189 23.4322 8.46146 23.2052C8.80684 23.0226 9.18741 23.0303 9.47815 23.1983C9.7689 23.3661 9.9659 23.6917 9.9805 24.0822C9.99866 24.5677 10.0462 25.0144 10.2218 25.4383C10.559 26.2525 11.2059 26.8994 12.0201 27.2366C12.371 27.382 12.7329 27.4383 13.1161 27.4644C13.4841 27.4895 13.9325 27.4895 14.4695 27.4895H14.5306C15.0677 27.4895 15.5159 27.4895 15.8841 27.4644C16.2673 27.4383 16.6292 27.382 16.9801 27.2366C17.7943 26.8994 18.4412 26.2525 18.7784 25.4383C18.954 25.0144 19.0015 24.5677 19.0196 24.082C19.0343 23.6917 19.2312 23.3661 19.5219 23.1981C19.8127 23.0303 20.1933 23.0226 20.5386 23.205C20.9682 23.4321 21.3788 23.6143 21.8337 23.6741C22.7075 23.7891 23.5911 23.5524 24.2903 23.0159C24.5916 22.7847 24.8213 22.4995 25.0356 22.1807C25.2413 21.8745 25.4655 21.4863 25.734 21.0212L25.7645 20.9683C26.033 20.5032 26.2573 20.1148 26.4196 19.7835C26.5885 19.4387 26.7206 19.0971 26.7702 18.7205C26.8853 17.8467 26.6484 16.963 26.1119 16.2639C25.8327 15.8999 25.4696 15.6354 25.0583 15.377C24.7274 15.1691 24.5439 14.8356 24.5439 14.4998C24.5439 14.1642 24.7274 13.8308 25.0582 13.623C25.4697 13.3645 25.8328 13.1 26.1121 12.7359C26.6486 12.0368 26.8854 11.1531 26.7704 10.2793C26.7207 9.90281 26.5886 9.56119 26.4197 9.21628C26.2574 8.88499 26.0333 8.49675 25.7647 8.03169L25.7342 7.9788C25.4656 7.51368 25.2415 7.12536 25.0357 6.81915C24.8214 6.50039 24.5917 6.21514 24.2904 5.98393C23.5912 5.44744 22.7076 5.21066 21.8337 5.32569C21.3789 5.38557 20.9683 5.56774 20.5387 5.79479C20.1934 5.97733 19.8128 5.96956 19.5221 5.8017C19.2313 5.63385 19.0343 5.30813 19.0196 4.91777C19.0015 4.43222 18.954 3.98553 18.7784 3.56167C18.4412 2.74746 17.7943 2.10057 16.9801 1.76332C16.6292 1.61798 16.2673 1.56162 15.8841 1.53547C15.5159 1.51036 15.0677 1.51036 14.5306 1.51038H14.4695ZM12.7137 3.43785C12.807 3.39923 12.9486 3.36362 13.2394 3.34377C13.5385 3.32337 13.9247 3.32288 14.5001 3.32288C15.0755 3.32288 15.4617 3.32337 15.7606 3.34377C16.0516 3.36362 16.1932 3.39923 16.2864 3.43785C16.6565 3.59115 16.9506 3.88519 17.1038 4.25529C17.1523 4.37202 17.1923 4.55401 17.2085 4.98551C17.2442 5.94297 17.7384 6.86485 18.6158 7.37137C19.4931 7.87791 20.5386 7.84494 21.3857 7.39723C21.7674 7.19546 21.9451 7.13918 22.0703 7.12269C22.4675 7.0704 22.8691 7.17803 23.1869 7.42188C23.267 7.48331 23.3687 7.58816 23.5313 7.83015C23.6985 8.07891 23.892 8.4131 24.1797 8.91142C24.4674 9.40975 24.6601 9.74442 24.792 10.0136C24.9202 10.2754 24.9602 10.4159 24.9733 10.5159C25.0257 10.9131 24.918 11.3148 24.6741 11.6326C24.5972 11.7328 24.4597 11.8585 24.0939 12.0882C23.2828 12.598 22.7315 13.4869 22.7314 14.4998C22.7314 15.5129 23.2826 16.4019 24.0939 16.9117C24.4595 17.1414 24.5971 17.267 24.674 17.3673C24.9179 17.6851 25.0255 18.0868 24.9732 18.484C24.96 18.584 24.92 18.7244 24.7918 18.9863C24.66 19.2554 24.4673 19.5901 24.1796 20.0884C23.8919 20.5867 23.6984 20.9209 23.5312 21.1697C23.3685 21.4116 23.2669 21.5165 23.1868 21.5779C22.869 21.8219 22.4674 21.9294 22.0702 21.8772C21.945 21.8606 21.7673 21.8043 21.3855 21.6027C20.5385 21.1549 19.4929 21.122 18.6156 21.6285C17.7384 22.1351 17.2442 23.0569 17.2085 24.0144C17.1923 24.4459 17.1523 24.6278 17.1038 24.7447C16.9506 25.1147 16.6565 25.4088 16.2864 25.5621C16.1932 25.6007 16.0516 25.6363 15.7606 25.6561C15.4617 25.6766 15.0755 25.677 14.5001 25.677C13.9247 25.677 13.5385 25.6766 13.2394 25.6561C12.9486 25.6363 12.807 25.6007 12.7137 25.5621C12.3437 25.4088 12.0496 25.1147 11.8963 24.7447C11.848 24.6278 11.8079 24.4459 11.7917 24.0144C11.7559 23.057 11.2617 22.1351 10.3844 21.6285C9.50708 21.122 8.4616 21.155 7.61451 21.6027C7.23276 21.8045 7.05511 21.8608 6.92983 21.8772C6.53267 21.9295 6.13101 21.8219 5.8132 21.578C5.73314 21.5166 5.63148 21.4117 5.46885 21.1697C5.30168 20.921 5.10816 20.5868 4.82046 20.0885C4.53274 19.5902 4.34009 19.2555 4.20824 18.9864C4.07999 18.7245 4.04002 18.584 4.02685 18.484C3.97457 18.0868 4.08219 17.6851 4.32606 17.3673C4.40298 17.2672 4.54055 17.1414 4.90618 16.9117C5.71743 16.402 6.26872 15.513 6.26877 14.5001C6.26883 13.4869 5.71751 12.5979 4.90619 12.0881C4.54065 11.8584 4.40309 11.7327 4.32617 11.6325C4.08231 11.3147 3.97469 10.913 4.02697 10.5158C4.04014 10.4158 4.08011 10.2753 4.20837 10.0135C4.34021 9.74433 4.53286 9.40966 4.82057 8.91133C5.10828 8.41302 5.30179 8.07883 5.46897 7.83007C5.6316 7.58809 5.73326 7.48323 5.81331 7.42181C6.13113 7.17794 6.53279 7.07032 6.92994 7.1226C7.05524 7.13909 7.2329 7.19538 7.61469 7.39718C8.46174 7.84488 9.50716 7.87783 10.3844 7.37134C11.2617 6.86484 11.7559 5.94299 11.7917 4.98557C11.8079 4.55403 11.848 4.37204 11.8963 4.25529C12.0496 3.88519 12.3437 3.59115 12.7137 3.43785Z" fill="#F5F7FA"/>
</svg>
