<svg width="63" height="63" viewBox="0 0 63 63" fill="none" xmlns="http://www.w3.org/2000/svg">
<path fill-rule="evenodd" clip-rule="evenodd" d="M31.5 63C48.8968 63 63 48.8968 63 31.5C63 14.103 48.8968 0 31.5 0C14.103 0 0 14.103 0 31.5C0 48.8968 14.103 63 31.5 63ZM33.8625 22.05C33.8625 20.7452 32.8047 19.6875 31.5 19.6875C30.1953 19.6875 29.1375 20.7452 29.1375 22.05V29.1375H22.05C20.7452 29.1375 19.6875 30.1953 19.6875 31.5C19.6875 32.8047 20.7452 33.8625 22.05 33.8625H29.1375V40.95C29.1375 42.2547 30.1953 43.3125 31.5 43.3125C32.8047 43.3125 33.8625 42.2547 33.8625 40.95V33.8625H40.95C42.2547 33.8625 43.3125 32.8047 43.3125 31.5C43.3125 30.1953 42.2547 29.1375 40.95 29.1375H33.8625V22.05Z" fill="#F5F7FA"/>
</svg>
