<svg width="52" height="51" viewBox="0 0 52 51" fill="none" xmlns="http://www.w3.org/2000/svg">
<path d="M27.6701 18.9971C27.6701 18.1228 26.9613 17.4141 26.087 17.4141C25.2127 17.4141 24.5039 18.1228 24.5039 18.9971V23.7464H19.7547C18.8804 23.7464 18.1716 24.4552 18.1716 25.3294C18.1716 26.2037 18.8804 26.9125 19.7547 26.9125H24.5039V31.6617C24.5039 32.536 25.2127 33.2448 26.087 33.2448C26.9613 33.2448 27.6701 32.536 27.6701 31.6617V26.9125H32.4193C33.2936 26.9125 34.0024 26.2037 34.0024 25.3294C34.0024 24.4552 33.2936 23.7464 32.4193 23.7464H27.6701V18.9971Z" fill="#CFD5DE"/>
<path fill-rule="evenodd" clip-rule="evenodd" d="M26.2081 2.63867H25.9658C21.0934 2.63865 17.2749 2.63863 14.2956 3.03919C11.2461 3.44919 8.83978 4.30476 6.95104 6.1935C5.0623 8.08224 4.20672 10.4886 3.79673 13.5381C3.39617 16.5174 3.39619 20.3358 3.39621 25.2083V25.4506C3.39619 30.3231 3.39617 34.1415 3.79673 37.1208C4.20672 40.1702 5.0623 42.5767 6.95104 44.4655C8.83978 46.3542 11.2461 47.2097 14.2956 47.6198C17.2749 48.0202 21.0934 48.0202 25.9658 48.0202H26.2081C31.0806 48.0202 34.899 48.0202 37.8784 47.6198C40.9278 47.2097 43.3343 46.3542 45.223 44.4655C47.1117 42.5767 47.9672 40.1702 48.3773 37.1208C48.7777 34.1415 48.7777 30.3231 48.7777 25.4506V25.2083C48.7777 20.3358 48.7777 16.5174 48.3773 13.5381C47.9672 10.4886 47.1117 8.08224 45.223 6.1935C43.3343 4.30476 40.9278 3.44919 37.8784 3.03919C34.899 2.63863 31.0806 2.63865 26.2081 2.63867ZM9.18985 8.43231C10.3922 7.22989 12.0191 6.5399 14.7175 6.1771C17.4614 5.80818 21.0671 5.80482 26.087 5.80482C31.1068 5.80482 34.7124 5.80818 37.4564 6.1771C40.1548 6.5399 41.7816 7.22989 42.9841 8.43231C44.1866 9.63471 44.8766 11.2615 45.2392 13.9599C45.6082 16.7039 45.6116 20.3095 45.6116 25.3294C45.6116 30.3493 45.6082 33.9549 45.2392 36.6989C44.8766 39.3973 44.1866 41.0241 42.9841 42.2266C41.7816 43.4291 40.1548 44.1191 37.4564 44.4817C34.7124 44.8507 31.1068 44.854 26.087 44.854C21.0671 44.854 17.4614 44.8507 14.7175 44.4817C12.0191 44.1191 10.3922 43.4291 9.18985 42.2266C7.98743 41.0241 7.29744 39.3973 6.93464 36.6989C6.56572 33.9549 6.56236 30.3493 6.56236 25.3294C6.56236 20.3095 6.56572 16.7039 6.93464 13.9599C7.29744 11.2615 7.98743 9.63471 9.18985 8.43231Z" fill="#CFD5DE"/>
</svg>
