<svg width="25" height="23" viewBox="0 0 25 23" fill="none" xmlns="http://www.w3.org/2000/svg">
<path fill-rule="evenodd" clip-rule="evenodd" d="M8.25814 9.37288H3.599C2.91536 9.3681 2.25746 9.59418 1.77006 10.0013C1.28264 10.4085 1.00564 10.9635 1 11.5441V19.7614C1.01265 20.97 2.17602 21.9413 3.599 21.9312H8.25814C8.94174 21.936 9.5997 21.71 10.0871 21.3028C10.5746 20.8957 10.8516 20.3407 10.8571 19.76V11.5441C10.8516 10.9635 10.5746 10.4085 10.0871 10.0013C9.5997 9.59418 8.94174 9.3681 8.25814 9.37288Z" stroke="#F5F7FA" stroke-width="1.5" stroke-linecap="round" stroke-linejoin="round"/>
<path fill-rule="evenodd" clip-rule="evenodd" d="M8.25814 1.00084H3.599C2.20464 0.967995 1.04204 1.8999 1 3.08412V4.49902C1.04204 5.68325 2.20464 6.61516 3.599 6.5823H8.25814C9.65244 6.61516 10.8151 5.68325 10.8571 4.49902V3.08412C10.8151 1.8999 9.65244 0.967995 8.25814 1.00084Z" stroke="#F5F7FA" stroke-width="1.5" stroke-linecap="round" stroke-linejoin="round"/>
<path fill-rule="evenodd" clip-rule="evenodd" d="M16.7418 13.5593H21.3993C22.0832 13.5644 22.7415 13.3385 23.2293 12.9314C23.7171 12.524 23.9944 11.969 24 11.3881V3.17212C23.9944 2.59148 23.7174 2.03651 23.23 1.62933C22.7425 1.22215 22.0846 0.996102 21.401 1.00093H16.7418C16.0582 0.996102 15.4003 1.22215 14.9128 1.62933C14.4254 2.03651 14.1484 2.59148 14.1428 3.17212V11.3881C14.1484 11.9687 14.4254 12.5236 14.9128 12.9308C15.4003 13.338 16.0582 13.564 16.7418 13.5593Z" stroke="#F5F7FA" stroke-width="1.5" stroke-linecap="round" stroke-linejoin="round"/>
<path fill-rule="evenodd" clip-rule="evenodd" d="M16.7418 21.9313H21.3993C22.7943 21.9649 23.9579 21.0328 24 19.848V18.4331C23.9579 17.2489 22.7953 16.317 21.401 16.3498H16.7418C15.3475 16.317 14.1849 17.2489 14.1428 18.4331V19.8466C14.1839 21.0314 15.3469 21.9641 16.7418 21.9313Z" stroke="#F5F7FA" stroke-width="1.5" stroke-linecap="round" stroke-linejoin="round"/>
</svg>
