<svg width="506" height="506" viewBox="0 0 506 506" fill="none" xmlns="http://www.w3.org/2000/svg">
<path fill-rule="evenodd" clip-rule="evenodd" d="M253 506C392.727 506 506 392.727 506 253C506 113.272 392.727 0 253 0C113.272 0 0 113.272 0 253C0 392.727 113.272 506 253 506ZM271.975 177.1C271.975 166.62 263.479 158.125 253 158.125C242.521 158.125 234.025 166.62 234.025 177.1V234.025H177.1C166.62 234.025 158.125 242.521 158.125 253C158.125 263.479 166.62 271.975 177.1 271.975H234.025V328.9C234.025 339.379 242.521 347.875 253 347.875C263.479 347.875 271.975 339.379 271.975 328.9V271.975H328.9C339.379 271.975 347.875 263.479 347.875 253C347.875 242.521 339.379 234.025 328.9 234.025H271.975V177.1Z" fill="#F5F7FA"/>
</svg>
