<svg width="57" height="53" viewBox="0 0 57 53" fill="none" xmlns="http://www.w3.org/2000/svg">
<g clip-path="url(#clip0_538_14)">
<path fill-rule="evenodd" clip-rule="evenodd" d="M23.0307 46.88C27.2705 46.88 30.7076 43.4408 30.7076 39.1982C30.7076 34.9555 27.2705 31.5161 23.0307 31.5161C18.7909 31.5161 15.3538 34.9555 15.3538 39.1982C15.3538 43.4408 18.7909 46.88 23.0307 46.88ZM23.0307 43.2247C20.8083 43.2247 19.0067 41.422 19.0067 39.1982C19.0067 36.9742 20.8083 35.1715 23.0307 35.1715C25.2532 35.1715 27.0548 36.9742 27.0548 39.1982C27.0548 41.422 25.2532 43.2247 23.0307 43.2247Z" fill="#CFD5DE"/>
<path d="M13.4346 39.1979C13.4346 40.2585 12.5753 41.1183 11.5154 41.1183C10.4554 41.1183 9.59613 40.2585 9.59613 39.1979C9.59613 38.1372 10.4554 37.2773 11.5154 37.2773C12.5753 37.2773 13.4346 38.1372 13.4346 39.1979Z" fill="#CFD5DE"/>
<path d="M36.4653 39.1979C36.4653 40.2585 35.6061 41.1183 34.5461 41.1183C33.4861 41.1183 32.6269 40.2585 32.6269 39.1979C32.6269 38.1372 33.4861 37.2773 34.5461 37.2773C35.6061 37.2773 36.4653 38.1372 36.4653 39.1979Z" fill="#CFD5DE"/>
<path fill-rule="evenodd" clip-rule="evenodd" d="M40.3038 25.7544C43.4837 25.7544 46.0614 28.3339 46.0614 31.5158V46.8798C46.0614 50.0618 43.4837 52.6413 40.3038 52.6413H5.75768C2.57781 52.6413 0 50.0618 0 46.8798V31.5158C0 28.3339 2.57781 25.7544 5.75768 25.7544H40.3038ZM7.67691 29.5954H38.3845C38.3845 30.0998 38.4838 30.5992 38.6766 31.0652C38.8697 31.5312 39.1524 31.9547 39.5088 32.3113C39.8652 32.6679 40.2884 32.951 40.754 33.1439C41.2198 33.337 41.719 33.4364 42.223 33.4364V44.9594C41.719 44.9594 41.2198 45.0586 40.754 45.2517C40.2884 45.4448 39.8652 45.7276 39.5088 46.0842C39.1524 46.441 38.8697 46.8644 38.6766 47.3304C38.4838 47.7964 38.3845 48.2959 38.3845 48.8003H7.67691C7.67691 48.2959 7.57762 47.7964 7.38472 47.3304C7.19182 46.8644 6.90908 46.441 6.55264 46.0842C6.19622 45.7276 5.77307 45.4448 5.30737 45.2517C4.84167 45.0586 4.34252 44.9594 3.83845 44.9594V33.4364C4.34252 33.4364 4.84167 33.337 5.30737 33.1439C5.77307 32.951 6.19622 32.6679 6.55264 32.3113C6.90908 31.9547 7.19182 31.5312 7.38472 31.0652C7.57762 30.5992 7.67691 30.0998 7.67691 29.5954Z" fill="#CFD5DE"/>
</g>
<path d="M27.3444 14.6226L26.3104 15.6566L25.2765 14.6226L26.3104 13.5887L27.3444 14.6226ZM52.203 26.3207C52.203 27.1284 51.5483 27.783 50.7407 27.783C49.9331 27.783 49.2784 27.1284 49.2784 26.3207H52.203ZM33.6218 22.9679L26.3104 15.6566L28.3784 13.5887L35.6897 20.9L33.6218 22.9679ZM26.3104 13.5887L33.6218 6.27734L35.6897 8.34531L28.3784 15.6566L26.3104 13.5887ZM27.3444 13.1604H41.9671V16.0849H27.3444V13.1604ZM52.203 23.3962V26.3207H49.2784V23.3962H52.203ZM41.9671 13.1604C47.6202 13.1604 52.203 17.7431 52.203 23.3962H49.2784C49.2784 19.3583 46.005 16.0849 41.9671 16.0849V13.1604Z" fill="#CFD5DE"/>
<defs>
<clipPath id="clip0_538_14">
<rect width="46.0614" height="46.0613" fill="white" transform="translate(0 6.58008)"/>
</clipPath>
</defs>
</svg>
