<svg width="50" height="50" viewBox="0 0 50 50" fill="none" xmlns="http://www.w3.org/2000/svg">
<g clip-path="url(#clip0_224_85)">
<path d="M27.7141 0.610598C28.5276 -0.203533 29.8468 -0.203532 30.6604 0.610598L36.9018 6.85614C37.7154 7.67031 37.7154 8.99033 36.9016 9.80444L30.6464 16.0632C29.8329 16.8774 28.5137 16.8774 27.7001 16.0632C26.8866 15.2491 26.8866 13.9291 27.7001 13.115L30.4229 10.3905H14.5714C13.4208 10.3905 12.4881 9.45712 12.4881 8.30577C12.4881 7.15442 13.4208 6.22106 14.5714 6.22106L30.3745 6.22104L27.7141 3.55883C26.9006 2.74469 26.9006 1.42473 27.7141 0.610598Z" fill="#CFD5DE"/>
<path fill-rule="evenodd" clip-rule="evenodd" d="M43.75 20.6738C47.2019 20.6738 50 23.474 50 26.9279V43.6056C50 47.0598 47.2019 49.8598 43.75 49.8598H6.25C2.79823 49.8598 0 47.0598 0 43.6056V26.9279C0 23.474 2.79823 20.6738 6.25 20.6738H43.75ZM8.33333 24.8433H41.6667C41.6667 25.3908 41.7744 25.9329 41.9837 26.4387C42.1933 26.9446 42.5002 27.4044 42.8871 27.7915C43.274 28.1785 43.7333 28.4858 44.2387 28.6952C44.7444 28.9048 45.2862 29.0127 45.8333 29.0127V41.521C45.2862 41.521 44.7444 41.6287 44.2387 41.8383C43.7333 42.0479 43.274 42.355 42.8871 42.7421C42.5002 43.1294 42.1933 43.589 41.9837 44.0948C41.7744 44.6006 41.6667 45.1429 41.6667 45.6904H8.33333C8.33333 45.1429 8.22556 44.6006 8.01617 44.0948C7.80677 43.589 7.49985 43.1294 7.11294 42.7421C6.72604 42.355 6.26671 42.0479 5.76119 41.8383C5.25567 41.6287 4.71383 41.521 4.16667 41.521V29.0127C4.71383 29.0127 5.25567 28.9048 5.76119 28.6952C6.26671 28.4858 6.72604 28.1785 7.11294 27.7915C7.49985 27.4044 7.80677 26.9446 8.01617 26.4387C8.22556 25.9329 8.33333 25.3908 8.33333 24.8433Z" fill="#CFD5DE"/>
<path fill-rule="evenodd" clip-rule="evenodd" d="M25 43.6231C29.6023 43.6231 33.3333 39.9003 33.3333 35.3078C33.3333 30.7153 29.6023 26.9922 25 26.9922C20.3976 26.9922 16.6667 30.7153 16.6667 35.3078C16.6667 39.9003 20.3976 43.6231 25 43.6231ZM25 39.6663C22.5875 39.6663 20.6319 37.7149 20.6319 35.3078C20.6319 32.9004 22.5875 30.949 25 30.949C27.4125 30.949 29.3681 32.9004 29.3681 35.3078C29.3681 37.7149 27.4125 39.6663 25 39.6663Z" fill="#CFD5DE"/>
<path d="M14.5833 35.3079C14.5833 36.456 13.6506 37.3867 12.5 37.3867C11.3494 37.3867 10.4167 36.456 10.4167 35.3079C10.4167 34.1597 11.3494 33.229 12.5 33.229C13.6506 33.229 14.5833 34.1597 14.5833 35.3079Z" fill="#CFD5DE"/>
<path d="M39.5833 35.3079C39.5833 36.456 38.6506 37.3867 37.5 37.3867C36.3494 37.3867 35.4167 36.456 35.4167 35.3079C35.4167 34.1597 36.3494 33.229 37.5 33.229C38.6506 33.229 39.5833 34.1597 39.5833 35.3079Z" fill="#CFD5DE"/>
</g>
<defs>
<clipPath id="clip0_224_85">
<rect width="50" height="49.8598" fill="white"/>
</clipPath>
</defs>
</svg>
