<svg width="61" height="60" viewBox="0 0 61 60" fill="none" xmlns="http://www.w3.org/2000/svg">
<path d="M10.3966 12.4606C10.3966 13.1216 10.6592 13.7554 11.1266 14.2228C11.5939 14.6901 12.2278 14.9527 12.8887 14.9527H52.762C53.423 14.9527 54.0569 15.2153 54.5242 15.6826C54.9916 16.15 55.2541 16.7838 55.2541 17.4448V52.3339C55.2541 52.9949 54.9916 53.6288 54.5242 54.0961C54.0569 54.5635 53.423 54.826 52.762 54.826H40.3016C39.6407 54.826 39.0068 54.5635 38.5395 54.0961C38.0721 53.6288 37.8095 52.9949 37.8095 52.3339C37.8095 51.673 38.0721 51.0391 38.5395 50.5718C39.0068 50.1044 39.6407 49.8419 40.3016 49.8419H50.27V19.9369H12.8887C12.0378 19.9286 11.1947 19.7735 10.3966 19.4783V47.3498C10.3966 48.0107 10.6592 48.6446 11.1266 49.1119C11.5939 49.5793 12.2278 49.8419 12.8887 49.8419H25.3491C26.0101 49.8419 26.6439 49.5793 27.1113 49.1119C27.5787 48.6446 27.8412 48.0107 27.8412 47.3498V35.9211L24.619 39.1434C24.1489 39.5973 23.5194 39.8485 22.866 39.8428C22.2126 39.8371 21.5876 39.575 21.1255 39.113C20.6635 38.6509 20.4014 38.0259 20.3957 37.3725C20.39 36.7191 20.6412 36.0896 21.0952 35.6195L28.5714 28.1433C28.8035 27.9107 29.0797 27.7269 29.3838 27.6025C29.9935 27.3505 30.6781 27.3505 31.2878 27.6025C31.5919 27.7269 31.8681 27.9107 32.1002 28.1433L39.5764 35.6195C40.0304 36.0896 40.2816 36.7191 40.2759 37.3725C40.2702 38.0259 40.0081 38.6509 39.5461 39.113C39.084 39.575 38.459 39.8371 37.8056 39.8428C37.1522 39.8485 36.5226 39.5973 36.0526 39.1434L32.8254 35.9211V47.3498C32.8254 49.3326 32.0377 51.2342 30.6356 52.6363C29.2336 54.0384 27.332 54.826 25.3491 54.826H12.8887C10.9059 54.826 9.00429 54.0384 7.60222 52.6363C6.20015 51.2342 5.41248 49.3326 5.41248 47.3498V12.4606C5.41248 10.4778 6.20015 8.57619 7.60222 7.17412C9.00429 5.77205 10.9059 4.98438 12.8887 4.98438H52.762C53.423 4.98438 54.0569 5.24693 54.5242 5.71429C54.9916 6.18165 55.2541 6.81552 55.2541 7.47646C55.2541 8.1374 54.9916 8.77127 54.5242 9.23863C54.0569 9.70598 53.423 9.96854 52.762 9.96854H12.8887C12.2278 9.96854 11.5939 10.2311 11.1266 10.6985C10.6592 11.1658 10.3966 11.7997 10.3966 12.4606Z" fill="#CFD5DE"/>
</svg>
