<svg width="25" height="23" viewBox="0 0 25 23" fill="none" xmlns="http://www.w3.org/2000/svg">
<path d="M20.1667 6.25V5.2C20.1667 3.72987 20.1667 2.99479 19.8881 2.43328C19.6432 1.93934 19.2522 1.53777 18.7713 1.28611C18.2247 1 17.509 1 16.0778 1H5.08889C3.65764 1 2.94202 1 2.39536 1.28611C1.91449 1.53777 1.52354 1.93934 1.27854 2.43328C1 2.99479 1 3.72987 1 5.2V6.25M1 6.25V17.8C1 19.2701 1 20.0053 1.27854 20.5668C1.52354 21.0606 1.91449 21.4623 2.39536 21.7139C2.94202 22 3.65764 22 5.08889 22H19.9111C21.3423 22 22.058 22 22.6047 21.7139C23.0855 21.4623 23.4765 21.0606 23.7214 20.5668C24 20.0053 24 19.2701 24 17.8V10.45C24 8.97987 24 8.24479 23.7214 7.68328C23.4765 7.18934 23.0855 6.78777 22.6047 6.53611C22.058 6.25 21.3423 6.25 19.9111 6.25H1ZM24 11.5H21.4444C20.033 11.5 18.8889 12.6752 18.8889 14.125C18.8889 15.5748 20.033 16.75 21.4444 16.75H24" stroke="#F5F7FA" stroke-width="1.5" stroke-linecap="round" stroke-linejoin="round"/>
</svg>
